<svg width="139" height="102" viewBox="0 0 139 102" fill="none" xmlns="http://www.w3.org/2000/svg">
<path d="M64.972 101.079C61.935 101.079 59.472 98.617 59.472 95.579V5.5C59.472 2.462 61.935 0 64.972 0C68.009 0 70.472 2.462 70.472 5.5V95.579C70.472 98.616 68.009 101.079 64.972 101.079Z" fill="#ED2024"/>
<path d="M5.5 68.044C2.463 68.044 0 65.582 0 62.544V39.466C0 36.428 2.463 33.966 5.5 33.966C8.537 33.966 11 36.428 11 39.466V62.545C11 65.582 8.537 68.044 5.5 68.044Z" fill="#838484"/>
<path d="M25.324 86.044C22.287 86.044 19.824 83.582 19.824 80.544V19.466C19.824 16.428 22.287 13.966 25.324 13.966C28.361 13.966 30.824 16.428 30.824 19.466V80.545C30.824 83.582 28.361 86.044 25.324 86.044Z" fill="#838484"/>
<path d="M45.147 80.044C42.11 80.044 39.647 77.582 39.647 74.544V28.466C39.647 25.428 42.11 22.966 45.147 22.966C48.184 22.966 50.647 25.428 50.647 28.466V74.545C50.647 77.582 48.185 80.044 45.147 80.044Z" fill="#838484"/>
<path d="M133.349 54.319H84.271C81.234 54.319 78.771 51.857 78.771 48.819C78.771 45.781 81.234 43.319 84.271 43.319H133.349C136.386 43.319 138.849 45.781 138.849 48.819C138.849 51.857 136.386 54.319 133.349 54.319Z" fill="#838484"/>
<path d="M117.349 77.322H84.271C81.234 77.322 78.771 74.86 78.771 71.822C78.771 68.784 81.234 66.322 84.271 66.322H117.349C120.386 66.322 122.849 68.784 122.849 71.822C122.849 74.86 120.386 77.322 117.349 77.322Z" fill="#838484"/>
<path d="M115.349 31.316H84.271C81.234 31.316 78.771 28.854 78.771 25.816C78.771 22.778 81.234 20.316 84.271 20.316H115.349C118.386 20.316 120.849 22.778 120.849 25.816C120.849 28.854 118.386 31.316 115.349 31.316Z" fill="#838484"/>
</svg>
