<svg xmlns="http://www.w3.org/2000/svg" version="1.1" xmlns:xlink="http://www.w3.org/1999/xlink" xmlns:svgjs="http://svgjs.com/svgjs" width="512" height="512" x="0" y="0" viewBox="0 0 24 24" style="enable-background:new 0 0 512 512" xml:space="preserve" class=""><g><path id="pause" d="m8.5 21.75h-2a2.067 2.067 0 0 1 -2.25-2.25v-15a2.067 2.067 0 0 1 2.25-2.25h2a2.067 2.067 0 0 1 2.25 2.25v15a2.067 2.067 0 0 1 -2.25 2.25zm-2-18c-.589 0-.75.161-.75.75v15c0 .589.161.75.75.75h2c.589 0 .75-.161.75-.75v-15c0-.589-.161-.75-.75-.75zm11 18h-2a2.067 2.067 0 0 1 -2.25-2.25v-15a2.067 2.067 0 0 1 2.25-2.25h2a2.067 2.067 0 0 1 2.25 2.25v15a2.067 2.067 0 0 1 -2.25 2.25zm-2-18c-.589 0-.75.161-.75.75v15c0 .589.161.75.75.75h2c.589 0 .75-.161.75-.75v-15c0-.589-.161-.75-.75-.75z" fill="#000000" data-original="#000000" class=""></path></g></svg>
