<svg xmlns="http://www.w3.org/2000/svg" version="1.1" xmlns:xlink="http://www.w3.org/1999/xlink" xmlns:svgjs="http://svgjs.com/svgjs" width="512" height="512" x="0" y="0" viewBox="0 0 24 24" style="enable-background:new 0 0 512 512" xml:space="preserve" class=""><g><path id="play" d="m7.012 21.753a3.769 3.769 0 0 1 -1.843-.488 3.706 3.706 0 0 1 -1.919-3.271v-11.988a3.76 3.76 0 0 1 5.726-3.2l10.076 6.168a3.545 3.545 0 0 1 0 6.052l-10.076 6.166a3.761 3.761 0 0 1 -1.964.561zm0-18a2.266 2.266 0 0 0 -1.11.294 2.224 2.224 0 0 0 -1.152 1.959v11.988a2.26 2.26 0 0 0 3.442 1.919l10.077-6.166a2.046 2.046 0 0 0 0-3.494l-10.077-6.166a2.26 2.26 0 0 0 -1.18-.337z" fill="#000000" data-original="#000000"></path></g></svg>
