<svg xmlns="http://www.w3.org/2000/svg" version="1.1" xmlns:xlink="http://www.w3.org/1999/xlink" xmlns:svgjs="http://svgjs.com/svgjs" width="512" height="512" x="0" y="0" viewBox="0 0 24 24" style="enable-background:new 0 0 512 512" xml:space="preserve" class=""><g><path id="stop" d="m17 20.75h-10a3.383 3.383 0 0 1 -3.75-3.75v-10a3.383 3.383 0 0 1 3.75-3.75h10a3.383 3.383 0 0 1 3.75 3.75v10a3.383 3.383 0 0 1 -3.75 3.75zm-10-16c-1.577 0-2.25.673-2.25 2.25v10c0 1.577.673 2.25 2.25 2.25h10c1.577 0 2.25-.673 2.25-2.25v-10c0-1.577-.673-2.25-2.25-2.25z" fill="#000000" data-original="#000000" class=""></path></g></svg>
